<mxfile host="Electron" modified="2024-04-01T18:28:11.789Z" agent="Mozilla/5.0 (Macintosh; Intel Mac OS X 10_15_7) AppleWebKit/537.36 (KHTML, like Gecko) draw.io/24.1.0 Chrome/120.0.6099.109 Electron/28.1.0 Safari/537.36" etag="tRTjbknvkJTVlx5ftUVR" version="24.1.0" type="device" pages="4">
  <diagram id="htTk4eG_E8sKRTyZ_3JZ" name="buckets">
    <mxGraphModel dx="2503" dy="1128" grid="1" gridSize="10" guides="1" tooltips="1" connect="1" arrows="1" fold="1" page="0" pageScale="1" pageWidth="850" pageHeight="1100" math="0" shadow="0">
      <root>
        <mxCell id="0" />
        <mxCell id="1" style="" parent="0" />
        <mxCell id="mw_Jj1TRxBOdgNDR-pG_-3" value="Roles and Responsibilities" style="rounded=0;whiteSpace=wrap;html=1;fillColor=#99CCFF;" parent="1" vertex="1">
          <mxGeometry x="100" y="840" width="120" height="40" as="geometry" />
        </mxCell>
        <mxCell id="mw_Jj1TRxBOdgNDR-pG_-4" value="&lt;b&gt;barebones&lt;/b&gt;" style="text;html=1;strokeColor=none;fillColor=none;align=right;verticalAlign=middle;whiteSpace=wrap;rounded=0;" parent="1" vertex="1">
          <mxGeometry x="-133" y="355" width="70" height="30" as="geometry" />
        </mxCell>
        <mxCell id="mw_Jj1TRxBOdgNDR-pG_-5" value="Training" style="rounded=0;whiteSpace=wrap;html=1;fillColor=#99CCFF;" parent="1" vertex="1">
          <mxGeometry x="-30" y="840" width="120" height="40" as="geometry" />
        </mxCell>
        <mxCell id="mw_Jj1TRxBOdgNDR-pG_-6" value="Toolchain Support" style="rounded=0;whiteSpace=wrap;html=1;fillColor=#99CCFF;" parent="1" vertex="1">
          <mxGeometry x="-30" y="680" width="120" height="40" as="geometry" />
        </mxCell>
        <mxCell id="mw_Jj1TRxBOdgNDR-pG_-7" value="Overall&lt;br&gt;Requirements" style="rounded=0;whiteSpace=wrap;html=1;fillColor=#99CCFF;" parent="1" vertex="1">
          <mxGeometry x="100" y="570" width="120" height="40" as="geometry" />
        </mxCell>
        <mxCell id="mw_Jj1TRxBOdgNDR-pG_-8" value="Protect the Code" style="rounded=0;whiteSpace=wrap;html=1;fillColor=#99CCFF;" parent="1" vertex="1">
          <mxGeometry x="-30" y="410" width="120" height="40" as="geometry" />
        </mxCell>
        <mxCell id="mw_Jj1TRxBOdgNDR-pG_-9" value="Ensure Release Integrity" style="rounded=0;whiteSpace=wrap;html=1;fillColor=#99CCFF;" parent="1" vertex="1">
          <mxGeometry x="-30" y="570" width="120" height="40" as="geometry" />
        </mxCell>
        <mxCell id="mw_Jj1TRxBOdgNDR-pG_-10" value="Incident Response Plan" style="rounded=0;whiteSpace=wrap;html=1;fillColor=#99CCFF;" parent="1" vertex="1">
          <mxGeometry x="100" y="410" width="120" height="40" as="geometry" />
        </mxCell>
        <mxCell id="mw_Jj1TRxBOdgNDR-pG_-11" value="Decommissioning Plan" style="rounded=0;whiteSpace=wrap;html=1;fillColor=#99CCFF;" parent="1" vertex="1">
          <mxGeometry x="100" y="680" width="120" height="40" as="geometry" />
        </mxCell>
        <mxCell id="mw_Jj1TRxBOdgNDR-pG_-12" value="Threat Prioritization Plan" style="rounded=0;whiteSpace=wrap;html=1;fillColor=#99CCFF;" parent="1" vertex="1">
          <mxGeometry x="230" y="680" width="120" height="40" as="geometry" />
        </mxCell>
        <mxCell id="mw_Jj1TRxBOdgNDR-pG_-13" value="Deployment Plan" style="rounded=0;whiteSpace=wrap;html=1;fillColor=#99CCFF;" parent="1" vertex="1">
          <mxGeometry x="230" y="570" width="120" height="40" as="geometry" />
        </mxCell>
        <mxCell id="mw_Jj1TRxBOdgNDR-pG_-14" value="Security&lt;br&gt;Requirements" style="rounded=0;whiteSpace=wrap;html=1;fillColor=#CCFFCC;" parent="1" vertex="1">
          <mxGeometry x="-30" y="620" width="120" height="40" as="geometry" />
        </mxCell>
        <mxCell id="mw_Jj1TRxBOdgNDR-pG_-15" value="Secure Design" style="rounded=0;whiteSpace=wrap;html=1;fillColor=#CCFFCC;" parent="1" vertex="1">
          <mxGeometry x="100" y="620" width="120" height="40" as="geometry" />
        </mxCell>
        <mxCell id="mw_Jj1TRxBOdgNDR-pG_-16" value="Security Design Review" style="rounded=0;whiteSpace=wrap;html=1;fillColor=#CCFFCC;" parent="1" vertex="1">
          <mxGeometry x="230" y="620" width="120" height="40" as="geometry" />
        </mxCell>
        <mxCell id="mw_Jj1TRxBOdgNDR-pG_-17" value="Attack Surface Analysis" style="rounded=0;whiteSpace=wrap;html=1;fillColor=#CCFFCC;" parent="1" vertex="1">
          <mxGeometry x="360" y="620" width="120" height="40" as="geometry" />
        </mxCell>
        <mxCell id="mw_Jj1TRxBOdgNDR-pG_-18" value="Threat Modeling" style="rounded=0;whiteSpace=wrap;html=1;fillColor=#CCFFCC;" parent="1" vertex="1">
          <mxGeometry x="490" y="620" width="120" height="40" as="geometry" />
        </mxCell>
        <mxCell id="mw_Jj1TRxBOdgNDR-pG_-19" value="Requirements&lt;br&gt;Gate" style="rounded=0;whiteSpace=wrap;html=1;fillColor=#CCFFCC;" parent="1" vertex="1">
          <mxGeometry x="-30" y="730" width="120" height="40" as="geometry" />
        </mxCell>
        <mxCell id="mw_Jj1TRxBOdgNDR-pG_-20" value="Design&lt;br&gt;Gate" style="rounded=0;whiteSpace=wrap;html=1;fillColor=#CCFFCC;" parent="1" vertex="1">
          <mxGeometry x="100" y="730" width="120" height="40" as="geometry" />
        </mxCell>
        <mxCell id="mw_Jj1TRxBOdgNDR-pG_-21" value="Implementation&lt;br&gt;Gate" style="rounded=0;whiteSpace=wrap;html=1;fillColor=#CCFFCC;" parent="1" vertex="1">
          <mxGeometry x="230" y="730" width="120" height="40" as="geometry" />
        </mxCell>
        <mxCell id="mw_Jj1TRxBOdgNDR-pG_-22" value="Verification&lt;br&gt;Gate" style="rounded=0;whiteSpace=wrap;html=1;fillColor=#CCFFCC;" parent="1" vertex="1">
          <mxGeometry x="360" y="730" width="120" height="40" as="geometry" />
        </mxCell>
        <mxCell id="mw_Jj1TRxBOdgNDR-pG_-23" value="Release&lt;br&gt;Gate" style="rounded=0;whiteSpace=wrap;html=1;fillColor=#CCFFCC;" parent="1" vertex="1">
          <mxGeometry x="490" y="730" width="120" height="40" as="geometry" />
        </mxCell>
        <mxCell id="mw_Jj1TRxBOdgNDR-pG_-24" value="Use Approved Tools" style="rounded=0;whiteSpace=wrap;html=1;fillColor=#CCFFCC;" parent="1" vertex="1">
          <mxGeometry x="620" y="730" width="120" height="40" as="geometry" />
        </mxCell>
        <mxCell id="mw_Jj1TRxBOdgNDR-pG_-25" value="Configure Secure Build" style="rounded=0;whiteSpace=wrap;html=1;fillColor=#CCFFCC;" parent="1" vertex="1">
          <mxGeometry x="-30" y="350" width="120" height="40" as="geometry" />
        </mxCell>
        <mxCell id="mw_Jj1TRxBOdgNDR-pG_-26" value="Use Secure Settings" style="rounded=0;whiteSpace=wrap;html=1;fillColor=#CCFFCC;" parent="1" vertex="1">
          <mxGeometry x="100" y="350" width="120" height="40" as="geometry" />
        </mxCell>
        <mxCell id="mw_Jj1TRxBOdgNDR-pG_-27" value="Code Securely" style="rounded=0;whiteSpace=wrap;html=1;fillColor=#CCFFCC;" parent="1" vertex="1">
          <mxGeometry x="100" y="460" width="120" height="40" as="geometry" />
        </mxCell>
        <mxCell id="mw_Jj1TRxBOdgNDR-pG_-28" value="Deprecate Unsafe Functions" style="rounded=0;whiteSpace=wrap;html=1;fillColor=#CCFFCC;" parent="1" vertex="1">
          <mxGeometry x="230" y="350" width="120" height="40" as="geometry" />
        </mxCell>
        <mxCell id="mw_Jj1TRxBOdgNDR-pG_-29" value="Static Analysis" style="rounded=0;whiteSpace=wrap;html=1;fillColor=#CCFFCC;" parent="1" vertex="1">
          <mxGeometry x="360" y="350" width="120" height="40" as="geometry" />
        </mxCell>
        <mxCell id="mw_Jj1TRxBOdgNDR-pG_-30" value="Dynamic Analysis" style="rounded=0;whiteSpace=wrap;html=1;fillColor=#CCFFCC;" parent="1" vertex="1">
          <mxGeometry x="360" y="460" width="120" height="40" as="geometry" />
        </mxCell>
        <mxCell id="mw_Jj1TRxBOdgNDR-pG_-31" value="Fuzz Testing" style="rounded=0;whiteSpace=wrap;html=1;fillColor=#CCFFCC;" parent="1" vertex="1">
          <mxGeometry x="230" y="460" width="120" height="40" as="geometry" />
        </mxCell>
        <mxCell id="mw_Jj1TRxBOdgNDR-pG_-32" value="Source Code&lt;br&gt;Review" style="rounded=0;whiteSpace=wrap;html=1;fillColor=#CCFFCC;" parent="1" vertex="1">
          <mxGeometry x="620" y="620" width="120" height="40" as="geometry" />
        </mxCell>
        <mxCell id="mw_Jj1TRxBOdgNDR-pG_-33" value="Penetration Testing" style="rounded=0;whiteSpace=wrap;html=1;fillColor=#CCFFCC;" parent="1" vertex="1">
          <mxGeometry x="490" y="460" width="120" height="40" as="geometry" />
        </mxCell>
        <mxCell id="mw_Jj1TRxBOdgNDR-pG_-34" value="Attack Surface Analysis Review" style="rounded=0;whiteSpace=wrap;html=1;fillColor=#CCFFCC;" parent="1" vertex="1">
          <mxGeometry x="880" y="730" width="120" height="40" as="geometry" />
        </mxCell>
        <mxCell id="mw_Jj1TRxBOdgNDR-pG_-35" value="Threat Model&lt;br&gt;Review" style="rounded=0;whiteSpace=wrap;html=1;fillColor=#CCFFCC;" parent="1" vertex="1">
          <mxGeometry x="750" y="730" width="120" height="40" as="geometry" />
        </mxCell>
        <mxCell id="mw_Jj1TRxBOdgNDR-pG_-36" value="Final&lt;br&gt;Review" style="rounded=0;whiteSpace=wrap;html=1;fillColor=#CCFFCC;" parent="1" vertex="1">
          <mxGeometry x="1010" y="730" width="120" height="40" as="geometry" />
        </mxCell>
        <mxCell id="mw_Jj1TRxBOdgNDR-pG_-37" value="Archive" style="rounded=0;whiteSpace=wrap;html=1;fillColor=#CCFFCC;" parent="1" vertex="1">
          <mxGeometry x="750" y="620" width="120" height="40" as="geometry" />
        </mxCell>
        <mxCell id="mw_Jj1TRxBOdgNDR-pG_-38" value="Identify / Confirm Vulnerabilities" style="rounded=0;whiteSpace=wrap;html=1;fillColor=#FDFFE0;" parent="1" vertex="1">
          <mxGeometry x="-30" y="510" width="120" height="40" as="geometry" />
        </mxCell>
        <mxCell id="mw_Jj1TRxBOdgNDR-pG_-39" value="Assess / Prioritize Remediation" style="rounded=0;whiteSpace=wrap;html=1;fillColor=#FDFFE0;" parent="1" vertex="1">
          <mxGeometry x="100" y="510" width="120" height="40" as="geometry" />
        </mxCell>
        <mxCell id="mw_Jj1TRxBOdgNDR-pG_-40" value="Root Cause Vulnerabilities" style="rounded=0;whiteSpace=wrap;html=1;fillColor=#FDFFE0;" parent="1" vertex="1">
          <mxGeometry x="230" y="510" width="120" height="40" as="geometry" />
        </mxCell>
        <mxCell id="mw_Jj1TRxBOdgNDR-pG_-41" value="Decommissioning Process" style="rounded=0;whiteSpace=wrap;html=1;fillColor=#FDFFE0;" parent="1" vertex="1">
          <mxGeometry x="-30" y="780" width="120" height="40" as="geometry" />
        </mxCell>
        <mxCell id="mw_Jj1TRxBOdgNDR-pG_-43" value="&lt;b&gt;tactical&lt;/b&gt;" style="text;html=1;strokeColor=none;fillColor=none;align=right;verticalAlign=middle;whiteSpace=wrap;rounded=0;" parent="1" vertex="1">
          <mxGeometry x="-133" y="465" width="70" height="30" as="geometry" />
        </mxCell>
        <mxCell id="mw_Jj1TRxBOdgNDR-pG_-44" value="&lt;b&gt;tracked&lt;/b&gt;" style="text;html=1;strokeColor=none;fillColor=none;align=right;verticalAlign=middle;whiteSpace=wrap;rounded=0;" parent="1" vertex="1">
          <mxGeometry x="-133" y="600" width="70" height="30" as="geometry" />
        </mxCell>
        <mxCell id="mw_Jj1TRxBOdgNDR-pG_-45" value="&lt;b&gt;managed&lt;/b&gt;" style="text;html=1;strokeColor=none;fillColor=none;align=right;verticalAlign=middle;whiteSpace=wrap;rounded=0;" parent="1" vertex="1">
          <mxGeometry x="-133" y="735" width="70" height="30" as="geometry" />
        </mxCell>
        <mxCell id="mw_Jj1TRxBOdgNDR-pG_-46" value="&lt;b&gt;mature&lt;/b&gt;" style="text;html=1;strokeColor=none;fillColor=none;align=right;verticalAlign=middle;whiteSpace=wrap;rounded=0;" parent="1" vertex="1">
          <mxGeometry x="-133" y="845" width="70" height="30" as="geometry" />
        </mxCell>
        <mxCell id="mw_Jj1TRxBOdgNDR-pG_-47" value="Reuse Secure Software" style="rounded=0;whiteSpace=wrap;html=1;fillColor=#CCFFCC;" parent="1" vertex="1">
          <mxGeometry x="-30" y="460" width="120" height="40" as="geometry" />
        </mxCell>
        <mxCell id="mw_Jj1TRxBOdgNDR-pG_-48" value="Secure Deployment" style="rounded=0;whiteSpace=wrap;html=1;fillColor=#FDFFE0;" parent="1" vertex="1">
          <mxGeometry x="360" y="510" width="120" height="40" as="geometry" />
        </mxCell>
        <mxCell id="mw_Jj1TRxBOdgNDR-pG_-52" value="" style="shape=curlyBracket;whiteSpace=wrap;html=1;rounded=1;fillColor=#FFCCE6;" parent="1" vertex="1">
          <mxGeometry x="-60" y="410" width="20" height="140" as="geometry" />
        </mxCell>
        <mxCell id="mw_Jj1TRxBOdgNDR-pG_-53" value="" style="shape=curlyBracket;whiteSpace=wrap;html=1;rounded=1;fillColor=#FFCCE6;" parent="1" vertex="1">
          <mxGeometry x="-60" y="570" width="20" height="90" as="geometry" />
        </mxCell>
        <mxCell id="mw_Jj1TRxBOdgNDR-pG_-54" value="" style="shape=curlyBracket;whiteSpace=wrap;html=1;rounded=1;fillColor=#FFCCE6;" parent="1" vertex="1">
          <mxGeometry x="-60" y="680" width="20" height="140" as="geometry" />
        </mxCell>
        <mxCell id="mw_Jj1TRxBOdgNDR-pG_-55" value="" style="shape=curlyBracket;whiteSpace=wrap;html=1;rounded=1;fillColor=#FFCCE6;" parent="1" vertex="1">
          <mxGeometry x="-60" y="840" width="20" height="40" as="geometry" />
        </mxCell>
        <mxCell id="mw_Jj1TRxBOdgNDR-pG_-56" value="" style="shape=curlyBracket;whiteSpace=wrap;html=1;rounded=1;fillColor=#FFCCE6;" parent="1" vertex="1">
          <mxGeometry x="-60" y="350" width="20" height="40" as="geometry" />
        </mxCell>
        <mxCell id="mw_Jj1TRxBOdgNDR-pG_-57" value="Security Design Review" style="rounded=0;whiteSpace=wrap;html=1;fillColor=#FFFFFF;labelBorderColor=none;dashed=1;gradientColor=#CCFFCC;gradientDirection=radial;" parent="1" vertex="1">
          <mxGeometry x="620" y="460" width="120" height="40" as="geometry" />
        </mxCell>
        <mxCell id="mw_Jj1TRxBOdgNDR-pG_-58" value="Source Code&lt;br&gt;Review" style="rounded=0;whiteSpace=wrap;html=1;fillColor=#FFFFFF;labelBorderColor=none;dashed=1;gradientColor=#CCFFCC;gradientDirection=radial;" parent="1" vertex="1">
          <mxGeometry x="750" y="460" width="120" height="40" as="geometry" />
        </mxCell>
        <mxCell id="mw_Jj1TRxBOdgNDR-pG_-59" value="Threat Prioritization Plan" style="rounded=0;whiteSpace=wrap;html=1;fillColor=#FFFFFF;dashed=1;gradientColor=#99CCFF;gradientDirection=radial;" parent="1" vertex="1">
          <mxGeometry x="360" y="410" width="120" height="40" as="geometry" />
        </mxCell>
        <mxCell id="mw_Jj1TRxBOdgNDR-pG_-60" value="Toolchain Support" style="rounded=0;whiteSpace=wrap;html=1;fillColor=#FFFFFF;dashed=1;gradientColor=#99CCFF;gradientDirection=radial;" parent="1" vertex="1">
          <mxGeometry x="230" y="410" width="120" height="40" as="geometry" />
        </mxCell>
        <mxCell id="omMHDoHDRywpzFsrSh7K-1" value="safety highlight" style="" parent="0" visible="0" />
        <mxCell id="omMHDoHDRywpzFsrSh7K-2" value="" style="rounded=1;whiteSpace=wrap;html=1;labelBorderColor=none;fillColor=none;gradientColor=#99CCFF;gradientDirection=radial;strokeColor=#FF0000;strokeWidth=3;" parent="omMHDoHDRywpzFsrSh7K-1" vertex="1">
          <mxGeometry x="-35" y="613.96" width="650" height="52.08" as="geometry" />
        </mxCell>
        <mxCell id="omMHDoHDRywpzFsrSh7K-3" value="" style="rounded=1;whiteSpace=wrap;html=1;labelBorderColor=none;fillColor=none;gradientColor=#99CCFF;gradientDirection=radial;strokeColor=#FF0000;strokeWidth=3;" parent="omMHDoHDRywpzFsrSh7K-1" vertex="1">
          <mxGeometry x="-35" y="503.96" width="390" height="52.08" as="geometry" />
        </mxCell>
        <mxCell id="omMHDoHDRywpzFsrSh7K-4" value="" style="rounded=1;whiteSpace=wrap;html=1;labelBorderColor=none;fillColor=none;gradientColor=#99CCFF;gradientDirection=radial;strokeColor=#FF0000;strokeWidth=3;" parent="omMHDoHDRywpzFsrSh7K-1" vertex="1">
          <mxGeometry x="-35" y="1273.96" width="650" height="52.08" as="geometry" />
        </mxCell>
        <mxCell id="omMHDoHDRywpzFsrSh7K-5" value="" style="rounded=1;whiteSpace=wrap;html=1;labelBorderColor=none;fillColor=none;gradientColor=#99CCFF;gradientDirection=radial;strokeColor=#FF0000;strokeWidth=3;" parent="omMHDoHDRywpzFsrSh7K-1" vertex="1">
          <mxGeometry x="-35" y="1133.96" width="390" height="52.08" as="geometry" />
        </mxCell>
      </root>
    </mxGraphModel>
  </diagram>
  <diagram name="buckets (top labels)" id="P66TlYTYjqTlbwTG8Vlw">
    <mxGraphModel dx="2503" dy="328" grid="1" gridSize="10" guides="1" tooltips="1" connect="1" arrows="1" fold="1" page="0" pageScale="1" pageWidth="850" pageHeight="1100" math="0" shadow="0">
      <root>
        <mxCell id="mQfXlQU5T3lxv9L24Qb0-0" />
        <mxCell id="mQfXlQU5T3lxv9L24Qb0-1" style="" parent="mQfXlQU5T3lxv9L24Qb0-0" />
        <mxCell id="mQfXlQU5T3lxv9L24Qb0-59" value="Roles and Responsibilities" style="rounded=0;whiteSpace=wrap;html=1;fillColor=#99CCFF;" vertex="1" parent="mQfXlQU5T3lxv9L24Qb0-1">
          <mxGeometry x="100" y="1550" width="120" height="40" as="geometry" />
        </mxCell>
        <mxCell id="mQfXlQU5T3lxv9L24Qb0-60" value="&lt;b&gt;barebones&lt;/b&gt;" style="text;html=1;strokeColor=none;fillColor=none;align=left;verticalAlign=middle;whiteSpace=wrap;rounded=0;" vertex="1" parent="mQfXlQU5T3lxv9L24Qb0-1">
          <mxGeometry x="-30" y="930" width="70" height="30" as="geometry" />
        </mxCell>
        <mxCell id="mQfXlQU5T3lxv9L24Qb0-61" value="Training" style="rounded=0;whiteSpace=wrap;html=1;fillColor=#99CCFF;" vertex="1" parent="mQfXlQU5T3lxv9L24Qb0-1">
          <mxGeometry x="-30" y="1550" width="120" height="40" as="geometry" />
        </mxCell>
        <mxCell id="mQfXlQU5T3lxv9L24Qb0-62" value="Toolchain Support" style="rounded=0;whiteSpace=wrap;html=1;fillColor=#99CCFF;" vertex="1" parent="mQfXlQU5T3lxv9L24Qb0-1">
          <mxGeometry x="-30" y="1370" width="120" height="40" as="geometry" />
        </mxCell>
        <mxCell id="mQfXlQU5T3lxv9L24Qb0-63" value="Overall&lt;br&gt;Requirements" style="rounded=0;whiteSpace=wrap;html=1;fillColor=#99CCFF;" vertex="1" parent="mQfXlQU5T3lxv9L24Qb0-1">
          <mxGeometry x="100" y="1230" width="120" height="40" as="geometry" />
        </mxCell>
        <mxCell id="mQfXlQU5T3lxv9L24Qb0-64" value="Protect the Code" style="rounded=0;whiteSpace=wrap;html=1;fillColor=#99CCFF;" vertex="1" parent="mQfXlQU5T3lxv9L24Qb0-1">
          <mxGeometry x="-30" y="1040" width="120" height="40" as="geometry" />
        </mxCell>
        <mxCell id="mQfXlQU5T3lxv9L24Qb0-65" value="Ensure Release Integrity" style="rounded=0;whiteSpace=wrap;html=1;fillColor=#99CCFF;" vertex="1" parent="mQfXlQU5T3lxv9L24Qb0-1">
          <mxGeometry x="-30" y="1230" width="120" height="40" as="geometry" />
        </mxCell>
        <mxCell id="mQfXlQU5T3lxv9L24Qb0-66" value="Incident Response Plan" style="rounded=0;whiteSpace=wrap;html=1;fillColor=#99CCFF;" vertex="1" parent="mQfXlQU5T3lxv9L24Qb0-1">
          <mxGeometry x="100" y="1040" width="120" height="40" as="geometry" />
        </mxCell>
        <mxCell id="mQfXlQU5T3lxv9L24Qb0-67" value="Decommissioning Plan" style="rounded=0;whiteSpace=wrap;html=1;fillColor=#99CCFF;" vertex="1" parent="mQfXlQU5T3lxv9L24Qb0-1">
          <mxGeometry x="100" y="1370" width="120" height="40" as="geometry" />
        </mxCell>
        <mxCell id="mQfXlQU5T3lxv9L24Qb0-68" value="Threat Prioritization Plan" style="rounded=0;whiteSpace=wrap;html=1;fillColor=#99CCFF;" vertex="1" parent="mQfXlQU5T3lxv9L24Qb0-1">
          <mxGeometry x="230" y="1370" width="120" height="40" as="geometry" />
        </mxCell>
        <mxCell id="mQfXlQU5T3lxv9L24Qb0-69" value="Deployment Plan" style="rounded=0;whiteSpace=wrap;html=1;fillColor=#99CCFF;" vertex="1" parent="mQfXlQU5T3lxv9L24Qb0-1">
          <mxGeometry x="230" y="1230" width="120" height="40" as="geometry" />
        </mxCell>
        <mxCell id="mQfXlQU5T3lxv9L24Qb0-70" value="Security&lt;br&gt;Requirements" style="rounded=0;whiteSpace=wrap;html=1;fillColor=#CCFFCC;" vertex="1" parent="mQfXlQU5T3lxv9L24Qb0-1">
          <mxGeometry x="-30" y="1280" width="120" height="40" as="geometry" />
        </mxCell>
        <mxCell id="mQfXlQU5T3lxv9L24Qb0-71" value="Secure Design" style="rounded=0;whiteSpace=wrap;html=1;fillColor=#CCFFCC;" vertex="1" parent="mQfXlQU5T3lxv9L24Qb0-1">
          <mxGeometry x="100" y="1280" width="120" height="40" as="geometry" />
        </mxCell>
        <mxCell id="mQfXlQU5T3lxv9L24Qb0-72" value="Security Design Review" style="rounded=0;whiteSpace=wrap;html=1;fillColor=#CCFFCC;" vertex="1" parent="mQfXlQU5T3lxv9L24Qb0-1">
          <mxGeometry x="230" y="1280" width="120" height="40" as="geometry" />
        </mxCell>
        <mxCell id="mQfXlQU5T3lxv9L24Qb0-73" value="Attack Surface Analysis" style="rounded=0;whiteSpace=wrap;html=1;fillColor=#CCFFCC;" vertex="1" parent="mQfXlQU5T3lxv9L24Qb0-1">
          <mxGeometry x="360" y="1280" width="120" height="40" as="geometry" />
        </mxCell>
        <mxCell id="mQfXlQU5T3lxv9L24Qb0-74" value="Threat Modeling" style="rounded=0;whiteSpace=wrap;html=1;fillColor=#CCFFCC;" vertex="1" parent="mQfXlQU5T3lxv9L24Qb0-1">
          <mxGeometry x="490" y="1280" width="120" height="40" as="geometry" />
        </mxCell>
        <mxCell id="mQfXlQU5T3lxv9L24Qb0-75" value="Requirements&lt;br&gt;Gate" style="rounded=0;whiteSpace=wrap;html=1;fillColor=#CCFFCC;" vertex="1" parent="mQfXlQU5T3lxv9L24Qb0-1">
          <mxGeometry x="-30" y="1420" width="120" height="40" as="geometry" />
        </mxCell>
        <mxCell id="mQfXlQU5T3lxv9L24Qb0-76" value="Design&lt;br&gt;Gate" style="rounded=0;whiteSpace=wrap;html=1;fillColor=#CCFFCC;" vertex="1" parent="mQfXlQU5T3lxv9L24Qb0-1">
          <mxGeometry x="100" y="1420" width="120" height="40" as="geometry" />
        </mxCell>
        <mxCell id="mQfXlQU5T3lxv9L24Qb0-77" value="Implementation&lt;br&gt;Gate" style="rounded=0;whiteSpace=wrap;html=1;fillColor=#CCFFCC;" vertex="1" parent="mQfXlQU5T3lxv9L24Qb0-1">
          <mxGeometry x="230" y="1420" width="120" height="40" as="geometry" />
        </mxCell>
        <mxCell id="mQfXlQU5T3lxv9L24Qb0-78" value="Verification&lt;br&gt;Gate" style="rounded=0;whiteSpace=wrap;html=1;fillColor=#CCFFCC;" vertex="1" parent="mQfXlQU5T3lxv9L24Qb0-1">
          <mxGeometry x="360" y="1420" width="120" height="40" as="geometry" />
        </mxCell>
        <mxCell id="mQfXlQU5T3lxv9L24Qb0-79" value="Release&lt;br&gt;Gate" style="rounded=0;whiteSpace=wrap;html=1;fillColor=#CCFFCC;" vertex="1" parent="mQfXlQU5T3lxv9L24Qb0-1">
          <mxGeometry x="490" y="1420" width="120" height="40" as="geometry" />
        </mxCell>
        <mxCell id="mQfXlQU5T3lxv9L24Qb0-80" value="Configure Secure Build" style="rounded=0;whiteSpace=wrap;html=1;fillColor=#CCFFCC;" vertex="1" parent="mQfXlQU5T3lxv9L24Qb0-1">
          <mxGeometry x="-30" y="960" width="120" height="40" as="geometry" />
        </mxCell>
        <mxCell id="mQfXlQU5T3lxv9L24Qb0-81" value="Use Secure Settings" style="rounded=0;whiteSpace=wrap;html=1;fillColor=#CCFFCC;" vertex="1" parent="mQfXlQU5T3lxv9L24Qb0-1">
          <mxGeometry x="100" y="960" width="120" height="40" as="geometry" />
        </mxCell>
        <mxCell id="mQfXlQU5T3lxv9L24Qb0-82" value="Code Securely" style="rounded=0;whiteSpace=wrap;html=1;fillColor=#CCFFCC;" vertex="1" parent="mQfXlQU5T3lxv9L24Qb0-1">
          <mxGeometry x="100" y="1090" width="120" height="40" as="geometry" />
        </mxCell>
        <mxCell id="mQfXlQU5T3lxv9L24Qb0-83" value="Deprecate Unsafe Functions" style="rounded=0;whiteSpace=wrap;html=1;fillColor=#CCFFCC;" vertex="1" parent="mQfXlQU5T3lxv9L24Qb0-1">
          <mxGeometry x="230" y="960" width="120" height="40" as="geometry" />
        </mxCell>
        <mxCell id="mQfXlQU5T3lxv9L24Qb0-84" value="Static Analysis" style="rounded=0;whiteSpace=wrap;html=1;fillColor=#CCFFCC;" vertex="1" parent="mQfXlQU5T3lxv9L24Qb0-1">
          <mxGeometry x="360" y="960" width="120" height="40" as="geometry" />
        </mxCell>
        <mxCell id="mQfXlQU5T3lxv9L24Qb0-85" value="Dynamic Analysis" style="rounded=0;whiteSpace=wrap;html=1;fillColor=#CCFFCC;" vertex="1" parent="mQfXlQU5T3lxv9L24Qb0-1">
          <mxGeometry x="360" y="1090" width="120" height="40" as="geometry" />
        </mxCell>
        <mxCell id="mQfXlQU5T3lxv9L24Qb0-86" value="Fuzz Testing" style="rounded=0;whiteSpace=wrap;html=1;fillColor=#CCFFCC;" vertex="1" parent="mQfXlQU5T3lxv9L24Qb0-1">
          <mxGeometry x="230" y="1090" width="120" height="40" as="geometry" />
        </mxCell>
        <mxCell id="mQfXlQU5T3lxv9L24Qb0-87" value="Source Code&lt;br&gt;Review" style="rounded=0;whiteSpace=wrap;html=1;fillColor=#CCFFCC;" vertex="1" parent="mQfXlQU5T3lxv9L24Qb0-1">
          <mxGeometry x="620" y="1280" width="120" height="40" as="geometry" />
        </mxCell>
        <mxCell id="mQfXlQU5T3lxv9L24Qb0-88" value="Penetration Testing" style="rounded=0;whiteSpace=wrap;html=1;fillColor=#CCFFCC;" vertex="1" parent="mQfXlQU5T3lxv9L24Qb0-1">
          <mxGeometry x="490" y="1090" width="120" height="40" as="geometry" />
        </mxCell>
        <mxCell id="mQfXlQU5T3lxv9L24Qb0-89" value="Archive" style="rounded=0;whiteSpace=wrap;html=1;fillColor=#CCFFCC;" vertex="1" parent="mQfXlQU5T3lxv9L24Qb0-1">
          <mxGeometry x="750" y="1280" width="120" height="40" as="geometry" />
        </mxCell>
        <mxCell id="mQfXlQU5T3lxv9L24Qb0-90" value="Identify / Confirm Vulnerabilities" style="rounded=0;whiteSpace=wrap;html=1;fillColor=#FDFFE0;" vertex="1" parent="mQfXlQU5T3lxv9L24Qb0-1">
          <mxGeometry x="-30" y="1140" width="120" height="40" as="geometry" />
        </mxCell>
        <mxCell id="mQfXlQU5T3lxv9L24Qb0-91" value="Assess / Prioritize Remediation" style="rounded=0;whiteSpace=wrap;html=1;fillColor=#FDFFE0;" vertex="1" parent="mQfXlQU5T3lxv9L24Qb0-1">
          <mxGeometry x="100" y="1140" width="120" height="40" as="geometry" />
        </mxCell>
        <mxCell id="mQfXlQU5T3lxv9L24Qb0-92" value="Root Cause Vulnerabilities" style="rounded=0;whiteSpace=wrap;html=1;fillColor=#FDFFE0;" vertex="1" parent="mQfXlQU5T3lxv9L24Qb0-1">
          <mxGeometry x="230" y="1140" width="120" height="40" as="geometry" />
        </mxCell>
        <mxCell id="mQfXlQU5T3lxv9L24Qb0-93" value="Decommissioning Process" style="rounded=0;whiteSpace=wrap;html=1;fillColor=#FDFFE0;" vertex="1" parent="mQfXlQU5T3lxv9L24Qb0-1">
          <mxGeometry x="-30" y="1470" width="120" height="40" as="geometry" />
        </mxCell>
        <mxCell id="mQfXlQU5T3lxv9L24Qb0-94" value="&lt;b&gt;tactical&lt;/b&gt;" style="text;html=1;strokeColor=none;fillColor=none;align=left;verticalAlign=middle;whiteSpace=wrap;rounded=0;" vertex="1" parent="mQfXlQU5T3lxv9L24Qb0-1">
          <mxGeometry x="-30" y="1010" width="70" height="30" as="geometry" />
        </mxCell>
        <mxCell id="mQfXlQU5T3lxv9L24Qb0-95" value="&lt;b&gt;tracked&lt;/b&gt;" style="text;html=1;strokeColor=none;fillColor=none;align=left;verticalAlign=middle;whiteSpace=wrap;rounded=0;" vertex="1" parent="mQfXlQU5T3lxv9L24Qb0-1">
          <mxGeometry x="-30" y="1200" width="70" height="30" as="geometry" />
        </mxCell>
        <mxCell id="mQfXlQU5T3lxv9L24Qb0-96" value="&lt;b&gt;managed&lt;/b&gt;" style="text;html=1;strokeColor=none;fillColor=none;align=left;verticalAlign=middle;whiteSpace=wrap;rounded=0;" vertex="1" parent="mQfXlQU5T3lxv9L24Qb0-1">
          <mxGeometry x="-30" y="1340" width="70" height="30" as="geometry" />
        </mxCell>
        <mxCell id="mQfXlQU5T3lxv9L24Qb0-97" value="&lt;b&gt;mature&lt;/b&gt;" style="text;html=1;strokeColor=none;fillColor=none;align=left;verticalAlign=middle;whiteSpace=wrap;rounded=0;" vertex="1" parent="mQfXlQU5T3lxv9L24Qb0-1">
          <mxGeometry x="-30" y="1520" width="70" height="30" as="geometry" />
        </mxCell>
        <mxCell id="mQfXlQU5T3lxv9L24Qb0-98" value="Reuse Secure Software" style="rounded=0;whiteSpace=wrap;html=1;fillColor=#CCFFCC;" vertex="1" parent="mQfXlQU5T3lxv9L24Qb0-1">
          <mxGeometry x="-30" y="1090" width="120" height="40" as="geometry" />
        </mxCell>
        <mxCell id="mQfXlQU5T3lxv9L24Qb0-99" value="Secure Deployment" style="rounded=0;whiteSpace=wrap;html=1;fillColor=#FDFFE0;" vertex="1" parent="mQfXlQU5T3lxv9L24Qb0-1">
          <mxGeometry x="360" y="1140" width="120" height="40" as="geometry" />
        </mxCell>
        <mxCell id="mQfXlQU5T3lxv9L24Qb0-100" value="Security Design Review" style="rounded=0;whiteSpace=wrap;html=1;fillColor=#FFFFFF;labelBorderColor=none;dashed=1;gradientColor=#CCFFCC;gradientDirection=radial;" vertex="1" parent="mQfXlQU5T3lxv9L24Qb0-1">
          <mxGeometry x="620" y="1090" width="120" height="40" as="geometry" />
        </mxCell>
        <mxCell id="mQfXlQU5T3lxv9L24Qb0-101" value="Source Code&lt;br&gt;Review" style="rounded=0;whiteSpace=wrap;html=1;fillColor=#FFFFFF;labelBorderColor=none;dashed=1;gradientColor=#CCFFCC;gradientDirection=radial;" vertex="1" parent="mQfXlQU5T3lxv9L24Qb0-1">
          <mxGeometry x="750" y="1090" width="120" height="40" as="geometry" />
        </mxCell>
        <mxCell id="mQfXlQU5T3lxv9L24Qb0-102" value="Threat Prioritization Plan" style="rounded=0;whiteSpace=wrap;html=1;fillColor=#FFFFFF;dashed=1;gradientColor=#99CCFF;gradientDirection=radial;" vertex="1" parent="mQfXlQU5T3lxv9L24Qb0-1">
          <mxGeometry x="360" y="1040" width="120" height="40" as="geometry" />
        </mxCell>
        <mxCell id="mQfXlQU5T3lxv9L24Qb0-103" value="Toolchain Support" style="rounded=0;whiteSpace=wrap;html=1;fillColor=#FFFFFF;dashed=1;gradientColor=#99CCFF;gradientDirection=radial;" vertex="1" parent="mQfXlQU5T3lxv9L24Qb0-1">
          <mxGeometry x="230" y="1040" width="120" height="40" as="geometry" />
        </mxCell>
        <mxCell id="mQfXlQU5T3lxv9L24Qb0-104" value="Use Approved Tools" style="rounded=0;whiteSpace=wrap;html=1;fillColor=#CCFFCC;" vertex="1" parent="mQfXlQU5T3lxv9L24Qb0-1">
          <mxGeometry x="620" y="1420" width="120" height="40" as="geometry" />
        </mxCell>
        <mxCell id="mQfXlQU5T3lxv9L24Qb0-105" value="Attack Surface Analysis Review" style="rounded=0;whiteSpace=wrap;html=1;fillColor=#CCFFCC;" vertex="1" parent="mQfXlQU5T3lxv9L24Qb0-1">
          <mxGeometry x="880" y="1420" width="120" height="40" as="geometry" />
        </mxCell>
        <mxCell id="mQfXlQU5T3lxv9L24Qb0-106" value="Threat Model&lt;br&gt;Review" style="rounded=0;whiteSpace=wrap;html=1;fillColor=#CCFFCC;" vertex="1" parent="mQfXlQU5T3lxv9L24Qb0-1">
          <mxGeometry x="750" y="1420" width="120" height="40" as="geometry" />
        </mxCell>
        <mxCell id="mQfXlQU5T3lxv9L24Qb0-107" value="Final&lt;br&gt;Review" style="rounded=0;whiteSpace=wrap;html=1;fillColor=#CCFFCC;" vertex="1" parent="mQfXlQU5T3lxv9L24Qb0-1">
          <mxGeometry x="1010" y="1420" width="120" height="40" as="geometry" />
        </mxCell>
        <mxCell id="mQfXlQU5T3lxv9L24Qb0-108" value="safety highlight" style="" visible="0" parent="mQfXlQU5T3lxv9L24Qb0-0" />
        <mxCell id="mQfXlQU5T3lxv9L24Qb0-111" value="" style="rounded=1;whiteSpace=wrap;html=1;labelBorderColor=none;fillColor=none;gradientColor=#99CCFF;gradientDirection=radial;strokeColor=#FF0000;strokeWidth=3;" vertex="1" parent="mQfXlQU5T3lxv9L24Qb0-108">
          <mxGeometry x="-35" y="1273.96" width="650" height="52.08" as="geometry" />
        </mxCell>
        <mxCell id="mQfXlQU5T3lxv9L24Qb0-112" value="" style="rounded=1;whiteSpace=wrap;html=1;labelBorderColor=none;fillColor=none;gradientColor=#99CCFF;gradientDirection=radial;strokeColor=#FF0000;strokeWidth=3;" vertex="1" parent="mQfXlQU5T3lxv9L24Qb0-108">
          <mxGeometry x="-35" y="1133.96" width="390" height="52.08" as="geometry" />
        </mxCell>
      </root>
    </mxGraphModel>
  </diagram>
  <diagram name="buckets - supplier activities" id="-1h7ABPGcgmU4-FJ7Bu3">
    <mxGraphModel dx="2103" dy="1128" grid="1" gridSize="10" guides="1" tooltips="1" connect="1" arrows="1" fold="1" page="0" pageScale="1" pageWidth="850" pageHeight="1100" math="0" shadow="0">
      <root>
        <mxCell id="39ny0xeTatWQXLALWdhJ-0" />
        <mxCell id="39ny0xeTatWQXLALWdhJ-1" style="" parent="39ny0xeTatWQXLALWdhJ-0" />
        <mxCell id="39ny0xeTatWQXLALWdhJ-47" value="AVCMDS" style="rounded=0;whiteSpace=wrap;html=1;fillColor=#FFCCE6;" vertex="1" parent="39ny0xeTatWQXLALWdhJ-1">
          <mxGeometry x="70" y="10" width="120" height="40" as="geometry" />
        </mxCell>
        <mxCell id="39ny0xeTatWQXLALWdhJ-48" value="CIA" style="rounded=0;whiteSpace=wrap;html=1;fillColor=#FFCCE6;" vertex="1" parent="39ny0xeTatWQXLALWdhJ-1">
          <mxGeometry x="330" y="10" width="120" height="40" as="geometry" />
        </mxCell>
        <mxCell id="39ny0xeTatWQXLALWdhJ-49" value="Supplier CMM" style="rounded=0;whiteSpace=wrap;html=1;fillColor=#FFCCE6;" vertex="1" parent="39ny0xeTatWQXLALWdhJ-1">
          <mxGeometry x="200" y="10" width="120" height="40" as="geometry" />
        </mxCell>
      </root>
    </mxGraphModel>
  </diagram>
  <diagram name="spectrum" id="aH3N7Sp5j6T8lEaMiXVL">
    <mxGraphModel dx="2503" dy="1128" grid="1" gridSize="5" guides="1" tooltips="1" connect="1" arrows="1" fold="1" page="0" pageScale="1" pageWidth="850" pageHeight="1100" math="0" shadow="0">
      <root>
        <mxCell id="98uQ99whcBbVKg6mqtDZ-0" />
        <mxCell id="spN0C8nqVuxaEwO2YDk5-0" value="mature" style="locked=1;" parent="98uQ99whcBbVKg6mqtDZ-0" />
        <mxCell id="98uQ99whcBbVKg6mqtDZ-2" value="" style="verticalLabelPosition=bottom;verticalAlign=top;html=1;shape=mxgraph.basic.cone;fontSize=18;fontColor=#0000CC;rotation=-90;" parent="spN0C8nqVuxaEwO2YDk5-0" vertex="1">
          <mxGeometry x="260" y="-40" width="280" height="720" as="geometry" />
        </mxCell>
        <mxCell id="98uQ99whcBbVKg6mqtDZ-12" value="&lt;b style=&quot;font-size: 20px;&quot;&gt;mature&lt;/b&gt;" style="text;html=1;strokeColor=none;fillColor=none;align=left;verticalAlign=middle;whiteSpace=wrap;rounded=0;rotation=-45;fontSize=20;" parent="spN0C8nqVuxaEwO2YDk5-0" vertex="1">
          <mxGeometry x="680" y="130.00000000000003" width="80" height="30" as="geometry" />
        </mxCell>
        <mxCell id="lyRtM0uHUBKa7k-tPAe7-1" value="" style="endArrow=none;html=1;rounded=0;strokeColor=#CCCCCC;strokeWidth=1;fontSize=18;fontColor=#0000CC;exitX=0.001;exitY=0.905;exitDx=0;exitDy=0;exitPerimeter=0;entryX=0.999;entryY=0.908;entryDx=0;entryDy=0;entryPerimeter=0;" parent="spN0C8nqVuxaEwO2YDk5-0" source="98uQ99whcBbVKg6mqtDZ-2" target="98uQ99whcBbVKg6mqtDZ-2" edge="1">
          <mxGeometry width="50" height="50" relative="1" as="geometry">
            <mxPoint x="697" y="467" as="sourcePoint" />
            <mxPoint x="701" y="184" as="targetPoint" />
          </mxGeometry>
        </mxCell>
        <mxCell id="hb51Rx_QRMvo-4RCLonf-3" value="managed" style="locked=1;" parent="98uQ99whcBbVKg6mqtDZ-0" />
        <mxCell id="hb51Rx_QRMvo-4RCLonf-11" value="" style="verticalLabelPosition=bottom;verticalAlign=top;html=1;shape=mxgraph.basic.cone;fontSize=18;fontColor=#0000CC;rotation=-90;fillColor=default;strokeColor=default;" parent="hb51Rx_QRMvo-4RCLonf-3" vertex="1">
          <mxGeometry x="214.69" y="33.72" width="222.99" height="571.94" as="geometry" />
        </mxCell>
        <mxCell id="98uQ99whcBbVKg6mqtDZ-11" value="&lt;b style=&quot;font-size: 20px;&quot;&gt;managed&lt;/b&gt;" style="text;html=1;strokeColor=none;fillColor=none;align=left;verticalAlign=middle;whiteSpace=wrap;rounded=0;rotation=-45;fontSize=20;" parent="hb51Rx_QRMvo-4RCLonf-3" vertex="1">
          <mxGeometry x="540" y="150" width="100" height="30" as="geometry" />
        </mxCell>
        <mxCell id="1-Z0fQfc-eHv1ljnoOMe-0" value="" style="endArrow=none;html=1;rounded=0;strokeColor=#CCCCCC;strokeWidth=1;fontSize=18;fontColor=#0000CC;exitX=0;exitY=0.908;exitDx=0;exitDy=0;exitPerimeter=0;entryX=0.999;entryY=0.909;entryDx=0;entryDy=0;entryPerimeter=0;" parent="hb51Rx_QRMvo-4RCLonf-3" source="hb51Rx_QRMvo-4RCLonf-11" target="hb51Rx_QRMvo-4RCLonf-11" edge="1">
          <mxGeometry width="50" height="50" relative="1" as="geometry">
            <mxPoint x="552" y="429" as="sourcePoint" />
            <mxPoint x="552" y="210" as="targetPoint" />
          </mxGeometry>
        </mxCell>
        <mxCell id="hb51Rx_QRMvo-4RCLonf-2" value="tracked" style="locked=1;" parent="98uQ99whcBbVKg6mqtDZ-0" />
        <mxCell id="hb51Rx_QRMvo-4RCLonf-9" value="" style="verticalLabelPosition=bottom;verticalAlign=top;html=1;shape=mxgraph.basic.cone;fontSize=18;fontColor=#0000CC;rotation=-90;fillColor=none;strokeColor=default;" parent="hb51Rx_QRMvo-4RCLonf-2" vertex="1">
          <mxGeometry x="157.7" y="122.91" width="154.32" height="393.88" as="geometry" />
        </mxCell>
        <mxCell id="98uQ99whcBbVKg6mqtDZ-10" value="&lt;b style=&quot;font-size: 20px;&quot;&gt;tracked&lt;/b&gt;" style="text;html=1;strokeColor=none;fillColor=none;align=left;verticalAlign=middle;whiteSpace=wrap;rounded=0;rotation=-45;fontSize=20;" parent="hb51Rx_QRMvo-4RCLonf-2" vertex="1">
          <mxGeometry x="380" y="190.00000000000006" width="80" height="30" as="geometry" />
        </mxCell>
        <mxCell id="hb51Rx_QRMvo-4RCLonf-15" value="" style="endArrow=none;html=1;rounded=0;strokeColor=#CCCCCC;strokeWidth=1;fontSize=18;fontColor=#0000CC;entryX=1.001;entryY=0.908;entryDx=0;entryDy=0;exitX=0.003;exitY=0.908;exitDx=0;exitDy=0;entryPerimeter=0;exitPerimeter=0;" parent="hb51Rx_QRMvo-4RCLonf-2" source="hb51Rx_QRMvo-4RCLonf-9" target="hb51Rx_QRMvo-4RCLonf-9" edge="1">
          <mxGeometry width="50" height="50" relative="1" as="geometry">
            <mxPoint x="395" y="394.85" as="sourcePoint" />
            <mxPoint x="395" y="244.85" as="targetPoint" />
          </mxGeometry>
        </mxCell>
        <mxCell id="hb51Rx_QRMvo-4RCLonf-1" value="tactical" style="locked=1;" parent="98uQ99whcBbVKg6mqtDZ-0" />
        <mxCell id="hb51Rx_QRMvo-4RCLonf-8" value="" style="verticalLabelPosition=bottom;verticalAlign=top;html=1;shape=mxgraph.basic.cone;fontSize=18;fontColor=#0000CC;rotation=-90;fillColor=default;strokeColor=default;" parent="hb51Rx_QRMvo-4RCLonf-1" vertex="1">
          <mxGeometry x="110.42" y="202.84" width="90.59" height="234.76" as="geometry" />
        </mxCell>
        <mxCell id="98uQ99whcBbVKg6mqtDZ-9" value="&lt;b style=&quot;font-size: 20px;&quot;&gt;tactical&lt;/b&gt;" style="text;html=1;strokeColor=none;fillColor=none;align=left;verticalAlign=middle;whiteSpace=wrap;rounded=0;rotation=-45;fontSize=20;" parent="hb51Rx_QRMvo-4RCLonf-1" vertex="1">
          <mxGeometry x="240" y="220.00000000000003" width="80" height="30" as="geometry" />
        </mxCell>
        <mxCell id="hb51Rx_QRMvo-4RCLonf-13" value="" style="endArrow=none;html=1;rounded=0;strokeColor=#CCCCCC;strokeWidth=1;fontSize=18;fontColor=#0000CC;entryX=0.998;entryY=0.911;entryDx=0;entryDy=0;exitX=-0.002;exitY=0.908;exitDx=0;exitDy=0;entryPerimeter=0;exitPerimeter=0;" parent="hb51Rx_QRMvo-4RCLonf-1" source="hb51Rx_QRMvo-4RCLonf-8" target="hb51Rx_QRMvo-4RCLonf-8" edge="1">
          <mxGeometry width="50" height="50" relative="1" as="geometry">
            <mxPoint x="250" y="365" as="sourcePoint" />
            <mxPoint x="250" y="275" as="targetPoint" />
          </mxGeometry>
        </mxCell>
        <mxCell id="hb51Rx_QRMvo-4RCLonf-0" value="barebones" style="locked=1;" parent="98uQ99whcBbVKg6mqtDZ-0" />
        <mxCell id="hb51Rx_QRMvo-4RCLonf-7" value="" style="verticalLabelPosition=bottom;verticalAlign=top;html=1;shape=mxgraph.basic.cone;fontSize=18;fontColor=#0000CC;rotation=-90;fillColor=none;strokeColor=default;" parent="hb51Rx_QRMvo-4RCLonf-0" vertex="1">
          <mxGeometry x="70.55" y="267.44" width="40.12" height="105.04" as="geometry" />
        </mxCell>
        <mxCell id="98uQ99whcBbVKg6mqtDZ-16" value="" style="endArrow=none;html=1;rounded=0;strokeColor=#CCCCCC;strokeWidth=1;fontSize=18;fontColor=#0000CC;entryX=1.005;entryY=0.908;entryDx=0;entryDy=0;exitX=0.003;exitY=0.908;exitDx=0;exitDy=0;exitPerimeter=0;entryPerimeter=0;" parent="hb51Rx_QRMvo-4RCLonf-0" source="hb51Rx_QRMvo-4RCLonf-7" target="hb51Rx_QRMvo-4RCLonf-7" edge="1">
          <mxGeometry width="50" height="50" relative="1" as="geometry">
            <mxPoint x="134" y="340" as="sourcePoint" />
            <mxPoint x="134.14" y="300" as="targetPoint" />
          </mxGeometry>
        </mxCell>
        <mxCell id="98uQ99whcBbVKg6mqtDZ-8" value="&lt;b style=&quot;font-size: 20px;&quot;&gt;barebones&lt;/b&gt;" style="text;html=1;strokeColor=none;fillColor=none;align=left;verticalAlign=middle;whiteSpace=wrap;rounded=0;rotation=-45;fontSize=20;" parent="hb51Rx_QRMvo-4RCLonf-0" vertex="1">
          <mxGeometry x="114" y="240" width="110" height="30" as="geometry" />
        </mxCell>
        <mxCell id="98uQ99whcBbVKg6mqtDZ-17" value="axis" style="locked=1;" parent="98uQ99whcBbVKg6mqtDZ-0" />
        <mxCell id="98uQ99whcBbVKg6mqtDZ-18" value="&lt;b style=&quot;font-size: 18px;&quot;&gt;Tactical&lt;/b&gt;" style="text;html=1;strokeColor=none;fillColor=none;align=right;verticalAlign=middle;whiteSpace=wrap;rounded=0;fontColor=#0000CC;fontSize=18;" parent="98uQ99whcBbVKg6mqtDZ-17" vertex="1">
          <mxGeometry x="-50" y="305" width="80" height="30" as="geometry" />
        </mxCell>
        <mxCell id="98uQ99whcBbVKg6mqtDZ-19" value="&lt;b style=&quot;font-size: 18px;&quot;&gt;Strategic&lt;/b&gt;" style="text;html=1;strokeColor=none;fillColor=none;align=left;verticalAlign=middle;whiteSpace=wrap;rounded=0;fontColor=#0000CC;fontSize=18;" parent="98uQ99whcBbVKg6mqtDZ-17" vertex="1">
          <mxGeometry x="770" y="305" width="90" height="30" as="geometry" />
        </mxCell>
        <mxCell id="98uQ99whcBbVKg6mqtDZ-20" value="" style="endArrow=openThin;html=1;rounded=0;fillColor=#dae8fc;strokeColor=#0000CC;strokeWidth=4;fontColor=#0000CC;startArrow=blockThin;startFill=1;endFill=0;" parent="98uQ99whcBbVKg6mqtDZ-17" edge="1">
          <mxGeometry width="50" height="50" relative="1" as="geometry">
            <mxPoint x="40" y="320" as="sourcePoint" />
            <mxPoint x="760" y="320" as="targetPoint" />
          </mxGeometry>
        </mxCell>
      </root>
    </mxGraphModel>
  </diagram>
</mxfile>
